<svg height="49" viewBox="0 0 40 49" width="40" xmlns="http://www.w3.org/2000/svg"><g fill="none" transform="translate(-1)"><path d="m26.6768136 17.7966102h-18.81440682v8.6822034c0 2.638983 1.05338983 5.0762711 2.84237292 6.8745762.0135593.0169492.0313559.0288136.0432203.0466102.7305085.7245763 1.5686441 1.3533898 2.5245763 1.8322034 1.8906779.9449152 3.0644068 2.8457627 3.0644068 4.9584746v.6991525c0 3.1542373-2.5652543 5.720339-5.720339 5.720339h-1.90677969c-.46694916 0-.84745763.3805085-.84745763.8474576 0 .4669492.38050847.8474576.84745763.8474576h17.11949149c.4669492 0 .8474577-.3805084.8474577-.8474576 0-.4669491-.3805085-.8474576-.8474577-.8474576h-1.9067796c-3.1550848 0-5.720339-2.5661017-5.720339-5.720339v-.6991525c0-2.1135594 1.1737288-4.0135594 3.0644068-4.9584746 3.3364406-1.6686441 5.4101695-5.0228814 5.4101695-8.7533898z" fill="#ff5111"/><path d="m37.1425932 27.2823051s-8.6591525 5.0321864-8.6591525 5.0321864c-.0167288.0095593-.0350509.0055763-.0517797.0135424-.8452034.8826441-1.8306102 1.6457966-2.9689661 2.2153729-1.2339491.6165763-1.9994915 1.8568983-1.9994915 3.2358305v.6572034c0 2.086322 1.6967797 3.7838983 3.7838983 3.7838983h1.7923729c1.3175932 0 2.3898305 1.0722373 2.3898305 2.3898305s-1.0722373 2.3898305-2.3898305 2.3898305h-16.0923221c-1.3175932 0-2.3898305-1.0722373-2.3898305-2.3898305s1.0722373-2.3898305 2.3898305-2.3898305h1.7923729c2.0863221 0 3.7838983-1.6975763 3.7838983-3.7838983v-.6572034c0-1.3789322-.766339-2.6192542-1.9994915-3.2358305-1.0714407-.5361187-2.0074576-1.2435085-2.82-2.0584407 0 0-9.01842373-5.202661-9.01842373-5.202661-2.27432203-1.312017-3.68750847-3.7584068-3.68750847-6.3840339 0-1.3494576.68588136-2.5786271 1.83379661-3.2884068 1.14871186-.708983 2.55472881-.7719152 3.76159322-.169678 0 0 3.96393217 1.9827628 3.96393217 1.9827628v-2.6941356h-.79661014c-.43972881 0-.79661017-.3568814-.79661017-.7966102s.35688136-.7966102.79661017-.7966102h1.59322034 19.2787627 1.5932204c.4397288 0 .7966101.3568814.7966101.7966102s-.3568813.7966102-.7966101.7966102h-.7966102v2.6136779s3.8046102-1.9023051 3.8046102-1.9023051c1.2068644-.6030339 2.6128813-.5401017 3.7615932.169678 1.1479152.7097797 1.833 1.9389492 1.833 3.2884068 0 2.6256271-1.4123899 5.0720169-3.6859153 6.3840339zm-26.5852712-2.3922204v-3.6859152s-4.67689827-2.3380509-4.67689827-2.3380509c-.70977966-.3552881-1.53666102-.3178474-2.21138983.0995763-.67472882.4166271-1.07781356 1.1391526-1.07781356 1.9325763 0 2.0576441 1.10728813 3.9750847 2.89010169 5.0043051 0 0 6.06379657 3.4979152 6.06379657 3.4979152-.6356949-1.3868983-.9877966-2.9147966-.9877966-4.5104068zm19.2787627-8.1612711h-17.6855423v8.1612711c0 2.4806441.9901864 4.771695 2.6718305 6.4621017.0127457.0159322.0294746.0270848.0406271.0438136.686678.6811017 1.4745254 1.2721864 2.3731017 1.7222712 1.7772373.8882203 2.8805424 2.6750169 2.8805424 4.6609661v.6572034c0 2.964983-2.411339 5.3771186-5.3771187 5.3771186h-1.7923729c-.4389322 0-.7966101.357678-.7966101.7966102s.3576779.7966102.7966101.7966102h16.0923221c.4389322 0 .7966101-.357678.7966101-.7966102s-.3576779-.7966102-.7966101-.7966102h-1.7923729c-2.9657797 0-5.3771186-2.4121356-5.3771186-5.3771186v-.6572034c0-1.9867458 1.103305-3.7727458 2.8805423-4.6609661 3.1362543-1.5685254 5.0855593-4.7215085 5.0855593-8.2281865zm8.3213899 2.2368813c-.6739322-.4174237-1.5016102-.4548644-2.2113899-.0995763 0 0-4.5167796 2.2583899-4.5167796 2.2583899v3.7655762c0 1.5573729-.3305932 3.0534068-.9368136 4.414017 0 0 5.8511017-3.4007288 5.8511017-3.4007288 1.7844068-1.030017 2.8916949-2.9474576 2.8916949-5.0051017 0-.7934237-.4022881-1.5159492-1.0778135-1.9325763zm-23.6171017 5.7292204c-.4397288 0-.7966102-.3568814-.7966102-.7966102v-5.5762712c0-.4397288.3568814-.7966102.7966102-.7966102.4405254 0 .7966102.3568814.7966102.7966102v5.5762712c0 .4397288-.3560848.7966102-.7966102.7966102zm16.6969491-21.71240683c.0183221.06532204.0318644.1330339.0318644.20393221v9.55932202c0 .4397288-.3560847.7966102-.7966101.7966102-.4397288 0-.7966102-.3568814-.7966102-.7966102v-7.32801694s-2.6877627 3.28601695-2.6877627 3.28601695c-.4253898.51938983-1.0515254.79979661-1.7262542.77191526-.6715424-.02947458-1.2729831-.36484746-1.6513729-.91928814 0 0-2.6973221-3.9559661-2.6973221-3.9559661s-2.6965254 3.9559661-2.6965254 3.9559661c-.3783898.55444068-.9806271.88981356-1.6521695.91928814-.6675593.02947457-1.2992712-.25252543-1.7254576-.77191526 0 0-2.6885593-3.28601695-2.6885593-3.28601695v7.32801694c0 .4397288-.3560848.7966102-.7966102.7966102-.4397288 0-.7966102-.3568814-.7966102-.7966102v-9.55932202c0-.07089831.014339-.13861017.0318644-.20393221-.4907118-.27164406-.82847454-.78944067-.82847454-1.38928813 0-.87866102.71455934-1.59322034 1.59322034-1.59322034s1.5932203.71455932 1.5932203 1.59322034c0 .57276271-.3058983 1.07144068-.7607627 1.35264407 0 0 3.8858644 4.74859322 3.8858644 4.74859322.1433899.17525423.3282034.1959661.423.18959322.0971865-.00398305.278017-.0390339.404678-.22544068 0 0 3.2047627-4.7 3.2047627-4.7-.4668135-.27801695-.784661-.7830678-.784661-1.36538983 0-.87866102.7145593-1.59322034 1.5932203-1.59322034.8786611 0 1.5932204.71455932 1.5932204 1.59322034 0 .58232203-.3170509 1.08737288-.7838644 1.36538983 0 0 3.2039661 4.7 3.2039661 4.7.1274576.18640678.3082881.22145763.4054745.22544068.0955933.00637288.2796102-.01433899.423-.18959322 0 0 3.8858645-4.74859322 3.8858645-4.74859322-.4548645-.28120339-.7615594-.77988136-.7615594-1.35264407 0-.87866102.7145594-1.59322034 1.5932204-1.59322034s1.5932203.71455932 1.5932203 1.59322034c0 .59984746-.3369661 1.11764407-.8284746 1.38928813z" fill="#fff"/></g></svg>